<?xml version="1.0" encoding="UTF-8"?>
<!-- Celestra Logo Favicon -->
<svg width="439" height="503" viewBox="0 0 439 503" xmlns="http://www.w3.org/2000/svg">
    <g id="Group">
        <path id="rss-3-copy-2" fill="rgb(74, 163, 176)" fill-rule="evenodd" stroke="none" d="M 303.987518 220.989899 C 298.306976 220.989899 292.726196 221.394318 287.271149 222.17453 C 282.353394 222.87793 277.796478 219.461639 277.093079 214.543884 C 276.389587 209.626099 279.806 205.069214 284.723755 204.365692 C 291.02002 203.465118 297.452087 202.999817 303.987518 202.999817 C 378.505341 202.999817 438.91333 263.408081 438.91333 337.925415 C 438.91333 344.461243 438.448303 350.8927 437.546997 357.189209 C 436.843567 362.106812 432.286682 365.523132 427.36908 364.819702 C 422.451508 364.116272 419.035187 359.559387 419.738586 354.641815 C 420.518463 349.187225 420.923248 343.605804 420.923248 337.925415 C 420.923248 273.34375 368.569427 220.989899 303.987518 220.989899 Z M 303.98761 256.970337 C 298.430939 256.970337 293.014038 257.528839 287.786835 258.589874 C 282.918365 259.578186 278.170502 256.432617 277.18222 251.564026 C 276.193939 246.695557 279.339508 241.947632 284.208069 240.959442 C 290.606506 239.660553 297.22226 238.980255 303.98761 238.980255 C 358.633484 238.980255 402.933167 283.279663 402.933167 337.925415 C 402.933167 344.690613 402.253143 351.306458 400.954254 357.70462 C 399.965698 362.573639 395.218109 365.719177 390.349091 364.730652 C 385.480988 363.742096 382.335419 358.994507 383.323059 354.126404 C 384.384491 348.899353 384.943085 343.482544 384.943085 337.925415 C 384.943085 293.215576 348.697571 256.970337 303.98761 256.970337 Z M 304.172211 292.950226 C 298.841919 292.950226 293.746948 293.873108 289.026093 295.561493 C 284.348297 297.233643 279.200256 294.797791 277.527618 290.120361 C 275.855011 285.442078 278.291138 280.294189 282.968903 278.622009 C 289.606079 276.24823 296.748505 274.960144 304.172211 274.960144 C 338.947021 274.960144 367.13739 303.150604 367.13739 337.925415 C 367.13739 345.268066 365.876282 352.336395 363.551971 358.913574 C 361.896881 363.59729 356.758026 366.052002 352.073425 364.396057 C 347.389679 362.740967 344.934937 357.602081 346.590942 352.91748 C 348.244232 348.240051 349.147308 343.198334 349.147308 337.925415 C 349.147308 313.085632 329.011383 292.950226 304.172211 292.950226 Z"/>
        <path id="rss-3-copy" fill="rgb(74, 163, 176)" fill-rule="evenodd" stroke="none" d="M 120.632233 440.58078 C 129.831741 449.755554 139.522873 458.114258 149.61734 465.661285 C 158.717636 472.464905 160.579666 485.357452 153.776016 494.457764 C 146.972519 503.558228 134.079819 505.420044 124.979355 498.616577 C 113.328171 489.905853 102.160049 480.270813 91.576073 469.715271 C -29.103638 349.359985 -29.366179 153.964081 90.988396 33.285095 C 101.54451 22.700531 112.685196 13.036011 124.314484 4.294678 C 133.396133 -2.533142 146.293701 -0.705811 153.121506 8.375824 C 159.94931 17.457489 158.122025 30.355011 149.040375 37.182831 C 138.967575 44.756836 129.297363 53.142029 120.122879 62.341248 C 15.815598 166.929688 16.043507 336.273193 120.632233 440.58078 Z M 178.744858 382.311218 C 187.743774 391.28595 197.418365 399.130432 207.597397 405.854645 C 217.077988 412.11731 219.686554 424.879822 213.423721 434.360565 C 207.161041 443.841125 194.398392 446.449829 184.917801 440.186859 C 172.45784 431.956116 160.64502 422.372559 149.688705 411.445709 C 61.191093 323.186005 60.997795 179.894897 149.25737 91.39743 C 160.183945 80.441406 171.970627 70.8255 184.407944 62.561676 C 193.872955 56.273071 206.642014 58.846863 212.930618 68.311829 C 219.217773 77.77536 216.644012 90.544403 207.181946 96.833038 C 197.020737 103.583771 187.367294 111.453949 178.391846 120.453583 C 106.179993 192.860046 106.338226 310.099243 178.744858 382.311218 Z M 236.557831 323.744568 C 245.190094 332.353638 254.931854 339.088013 265.304108 343.978516 C 275.580414 348.825684 279.983337 361.085205 275.137512 371.361633 C 270.290253 381.639587 258.030579 386.041748 247.754242 381.194641 C 233.17157 374.319092 219.52417 364.869232 207.501663 352.879059 C 151.184708 296.713501 151.062134 205.5289 207.227707 149.211945 C 219.086975 137.320709 232.545502 127.910583 246.932587 121.013062 C 257.177734 116.101074 269.464691 120.425568 274.376709 130.673615 C 279.288696 140.918762 274.964203 153.20575 264.716156 158.117737 C 254.4841 163.02243 244.87854 169.72876 236.362183 178.268097 C 196.242859 218.495544 196.331406 283.626282 236.557831 323.744568 Z"/>
    </g>
</svg>
